# xmcd
#
# Track frame offsets:
#	150
#	20634
#	37911
#	86800
#	98576
#	122572
#	154609
#
# Disc length: 2397 seconds
#
# Revision: 0
# Processed by: cddbd v1.4PL0 Copyright (c) Steve Scherf et al.
# Submitted via: dBpowerAMP V4.0
#
DISCID=48095b07
DTITLE=Lucky 13 Band - Radion Thyme
DYEAR=2001
DGENRE=Country
TTITLE0=Funeral in the Rain
TTITLE1=Damn Leather Jacket
TTITLE2=No More Tears
TTITLE3=Stay Away Form My Woman
TTITLE4=No Idea
TTITLE5=McCauley
TTITLE6=No More Tears - Live
EXTD=\n
EXTT0=
EXTT1=
EXTT2=
EXTT3=
EXTT4=
EXTT5=
EXTT6=
PLAYORDER=
